<svg width="32" height="32" viewBox="0 0 32 32" fill="none" xmlns="http://www.w3.org/2000/svg">
<path d="M26.8581 22.515C26.7905 22.628 26.7013 22.7265 26.5955 22.8049C26.4897 22.8833 26.3695 22.94 26.2418 22.9718C26.114 23.0036 25.9812 23.0099 25.8511 22.9903C25.7209 22.9707 25.5958 22.9256 25.4831 22.8575L17.0006 17.7663V27C17.0006 27.2652 16.8953 27.5196 16.7078 27.7071C16.5202 27.8946 16.2659 28 16.0006 28C15.7354 28 15.4811 27.8946 15.2935 27.7071C15.106 27.5196 15.0006 27.2652 15.0006 27V17.7663L6.51564 22.8575C6.40299 22.9267 6.27773 22.9729 6.14712 22.9934C6.0165 23.0139 5.88312 23.0082 5.75469 22.9768C5.62626 22.9454 5.50533 22.8889 5.3989 22.8104C5.29247 22.732 5.20265 22.6332 5.13464 22.5198C5.06663 22.4065 5.02178 22.2807 5.00268 22.1499C4.98358 22.0191 4.99061 21.8858 5.02337 21.7577C5.05613 21.6296 5.11396 21.5093 5.19352 21.4037C5.27309 21.2981 5.3728 21.2093 5.48689 21.1425L14.0569 16L5.48689 10.8575C5.3728 10.7907 5.27309 10.7019 5.19352 10.5963C5.11396 10.4907 5.05613 10.3704 5.02337 10.2423C4.99061 10.1142 4.98358 9.98092 5.00268 9.85009C5.02178 9.71927 5.06663 9.59353 5.13464 9.48015C5.20265 9.36677 5.29247 9.268 5.3989 9.18956C5.50533 9.11112 5.62626 9.05457 5.75469 9.02317C5.88312 8.99177 6.0165 8.98614 6.14712 9.00663C6.27773 9.02711 6.40299 9.07329 6.51564 9.1425L15.0006 14.2338V5C15.0006 4.73478 15.106 4.48043 15.2935 4.29289C15.4811 4.10536 15.7354 4 16.0006 4C16.2659 4 16.5202 4.10536 16.7078 4.29289C16.8953 4.48043 17.0006 4.73478 17.0006 5V14.2338L25.4856 9.1425C25.5983 9.07329 25.7236 9.02711 25.8542 9.00663C25.9848 8.98614 26.1182 8.99177 26.2466 9.02317C26.375 9.05457 26.496 9.11112 26.6024 9.18956C26.7088 9.268 26.7986 9.36677 26.8666 9.48015C26.9347 9.59353 26.9795 9.71927 26.9986 9.85009C27.0177 9.98092 27.0107 10.1142 26.9779 10.2423C26.9452 10.3704 26.8873 10.4907 26.8078 10.5963C26.7282 10.7019 26.6285 10.7907 26.5144 10.8575L17.9444 16L26.5144 21.1425C26.6271 21.21 26.7255 21.2991 26.8038 21.4046C26.8821 21.5101 26.9388 21.63 26.9707 21.7575C27.0026 21.885 27.0091 22.0175 26.9898 22.1475C26.9705 22.2774 26.9258 22.4023 26.8581 22.515Z" fill="#343330"/>
</svg>
