<svg width="45" height="45" viewBox="0 0 45 45" fill="none" xmlns="http://www.w3.org/2000/svg">
<path d="M22.1201 7.60341C18.8391 7.60341 15.6318 8.57632 12.9038 10.3991C10.1758 12.2219 8.04957 14.8127 6.794 17.8439C5.53844 20.8752 5.20992 24.2106 5.85001 27.4285C6.49009 30.6464 8.07002 33.6023 10.39 35.9223C12.71 38.2422 15.6658 39.8222 18.8837 40.4623C22.1017 41.1023 25.4371 40.7738 28.4683 39.5183C31.4995 38.2627 34.0903 36.1365 35.9131 33.4085C37.7359 30.6804 38.7089 27.4732 38.7089 24.1922C38.7038 19.7941 36.9545 15.5776 33.8446 12.4677C30.7346 9.3578 26.5181 7.60844 22.1201 7.60341ZM22.1201 36.6338C19.6593 36.6338 17.2539 35.9041 15.2079 34.537C13.1619 33.1699 11.5672 31.2268 10.6255 28.9534C9.68384 26.68 9.43746 24.1784 9.91752 21.765C10.3976 19.3515 11.5825 17.1347 13.3225 15.3947C15.0625 13.6547 17.2794 12.4697 19.6928 11.9897C22.1063 11.5096 24.6078 11.756 26.8813 12.6977C29.1547 13.6393 31.0978 15.234 32.4649 17.28C33.832 19.326 34.5617 21.7315 34.5617 24.1922C34.558 27.4908 33.246 30.6532 30.9136 32.9857C28.5811 35.3182 25.4187 36.6302 22.1201 36.6338ZM28.4255 17.1955C28.6188 17.3882 28.7722 17.6171 28.8769 17.8691C28.9815 18.1212 29.0354 18.3914 29.0354 18.6643C29.0354 18.9373 28.9815 19.2075 28.8769 19.4595C28.7722 19.7116 28.6188 19.9405 28.4255 20.1331L23.5871 24.9715C23.1976 25.3611 22.6692 25.5799 22.1183 25.5799C21.5674 25.5799 21.0391 25.3611 20.6495 24.9715C20.26 24.582 20.0411 24.0536 20.0411 23.5027C20.0411 22.9518 20.26 22.4235 20.6495 22.0339L25.4879 17.1955C25.6806 17.0022 25.9095 16.8488 26.1615 16.7442C26.4136 16.6395 26.6838 16.5856 26.9567 16.5856C27.2296 16.5856 27.4999 16.6395 27.7519 16.7442C28.004 16.8488 28.2329 17.0022 28.4255 17.1955ZM15.8993 2.76501C15.8993 2.21505 16.1177 1.68763 16.5066 1.29875C16.8955 0.909874 17.4229 0.691406 17.9729 0.691406H26.2673C26.8172 0.691406 27.3446 0.909874 27.7335 1.29875C28.1224 1.68763 28.3409 2.21505 28.3409 2.76501C28.3409 3.31496 28.1224 3.84239 27.7335 4.23126C27.3446 4.62014 26.8172 4.83861 26.2673 4.83861H17.9729C17.4229 4.83861 16.8955 4.62014 16.5066 4.23126C16.1177 3.84239 15.8993 3.31496 15.8993 2.76501Z" fill="#343330"/>
</svg>
